<?xml version="1.0" encoding="utf-8"?>
<!-- Generator: Adobe Illustrator 19.2.0, SVG Export Plug-In . SVG Version: 6.00 Build 0)  -->
<svg version="1.1" id="Capa_1" xmlns="http://www.w3.org/2000/svg" xmlns:xlink="http://www.w3.org/1999/xlink" x="0px" y="0px"
	 viewBox="0 0 100 125" style="enable-background:new 0 0 100 125;" xml:space="preserve">
<path d="M65.6,42.8C65.6,30.2,55.4,20,42.8,20c-6.3,0-12,2.6-16.1,6.7S20,36.5,20,42.8c0,12.6,10.2,22.8,22.8,22.8
	c6.3,0,12-2.6,16.1-6.7S65.6,49.1,65.6,42.8z M42.8,60.8c-4.8,0-9.3-1.9-12.7-5.3c-3.4-3.4-5.3-7.9-5.3-12.7s1.9-9.3,5.3-12.7
	s7.9-5.3,12.7-5.3s9.3,1.9,12.7,5.3s5.3,7.9,5.3,12.7s-1.9,9.3-5.3,12.7C52.1,58.9,47.6,60.8,42.8,60.8z M79.6,76.3l-3.4,3.4
	c-0.5,0.5-1.2,0.5-1.7,0L57.9,63c1-0.7,1.9-1.5,2.7-2.4c0.9-0.9,1.6-1.8,2.4-2.7l16.7,16.7C80.1,75,80.1,75.8,79.6,76.3z" fill="blue"/>
</svg>
